<svg width="22" height="22" viewBox="0 0 22 22" fill="none" xmlns="http://www.w3.org/2000/svg">
<path d="M14.1343 4.0974C14.1406 3.57737 14.0137 3.06411 13.7654 2.60485C13.5171 2.1456 13.1553 1.75509 12.7134 1.46926C12.2714 1.18343 11.7635 1.01146 11.2363 0.969169C10.7091 0.92688 10.1796 1.01563 9.69649 1.22725C9.21337 1.43887 8.79216 1.76657 8.47162 2.1802C8.15108 2.59383 7.94151 3.0801 7.86217 3.59427C7.78283 4.10844 7.83628 4.634 8.01761 5.1226C8.19894 5.61119 8.50231 6.04713 8.89982 6.3903C8.55869 6.67734 8.28385 7.0327 8.09366 7.43262C7.90348 7.83253 7.80235 8.26779 7.79703 8.70927C7.79573 8.91489 7.87756 9.11261 8.02451 9.25894C8.17146 9.40526 8.3715 9.48821 8.58062 9.48953C8.78975 9.49085 8.99082 9.41043 9.1396 9.26597C9.28839 9.12151 9.37271 8.92484 9.37401 8.71923C9.3766 8.30799 9.54524 7.91465 9.84281 7.62573C10.1404 7.33681 10.5425 7.17598 10.9608 7.17862C11.379 7.18126 11.7791 7.34715 12.073 7.6398C12.3669 7.93246 12.5306 8.3279 12.528 8.73913C12.5267 8.94475 12.6085 9.14247 12.7554 9.28879C12.9024 9.43512 13.1024 9.51807 13.3116 9.51939C13.5207 9.52071 13.7218 9.44029 13.8705 9.29583C14.0193 9.15137 14.1036 8.9547 14.1049 8.74908C14.1052 8.30757 14.0096 7.87107 13.8244 7.46879C13.6393 7.0665 13.369 6.7077 13.0315 6.41638C13.3726 6.12934 13.6475 5.77398 13.8377 5.37406C14.0278 4.97414 14.129 4.53888 14.1343 4.0974ZM9.40337 4.06754C9.4053 3.76087 9.49968 3.46167 9.67457 3.20778C9.84946 2.95388 10.097 2.7567 10.3859 2.64116C10.6748 2.52562 10.9921 2.49691 11.2976 2.55867C11.6031 2.62043 11.8832 2.76988 12.1024 2.98812C12.3215 3.20636 12.47 3.4836 12.5289 3.78476C12.5879 4.08592 12.5547 4.39749 12.4335 4.68007C12.3124 4.96264 12.1087 5.20353 11.8483 5.37227C11.5879 5.54101 11.2825 5.63003 10.9706 5.62806C10.5523 5.62542 10.1522 5.45952 9.85833 5.16687C9.56443 4.87422 9.40077 4.47878 9.40337 4.06754Z" fill="#8B97AE"/>
<path d="M6.965 15.6818C6.97125 15.1618 6.84439 14.6485 6.59609 14.1893C6.34779 13.73 5.98602 13.3395 5.54407 13.0537C5.10212 12.7678 4.59419 12.5959 4.067 12.5536C3.53981 12.5113 3.01029 12.6 2.52718 12.8117C2.04406 13.0233 1.62285 13.351 1.30231 13.7646C0.981774 14.1782 0.772195 14.6645 0.692857 15.1787C0.61352 15.6928 0.666974 16.2184 0.8483 16.707C1.02963 17.1956 1.333 17.6315 1.73051 17.9747L1.5641 18.1055C1.26948 18.3918 1.03515 18.7325 0.874482 19.1079C0.713814 19.4834 0.629963 19.8863 0.627718 20.2937C0.62642 20.4993 0.708248 20.697 0.855201 20.8433C1.00215 20.9897 1.20219 21.0726 1.41131 21.0739C1.62044 21.0753 1.82151 20.9948 1.97029 20.8504C2.11908 20.7059 2.2034 20.5092 2.2047 20.3036C2.20729 19.8924 2.37593 19.4991 2.6735 19.2101C2.97108 18.9212 3.37322 18.7604 3.79146 18.763C4.20971 18.7657 4.60979 18.9316 4.90369 19.2242C5.1976 19.5169 5.36125 19.9123 5.35866 20.3235C5.35736 20.5292 5.43919 20.7269 5.58614 20.8732C5.7331 21.0195 5.93314 21.1025 6.14226 21.1038C6.35138 21.1051 6.55245 21.0247 6.70124 20.8802C6.85002 20.7358 6.93434 20.5391 6.93564 20.3335C6.93589 19.892 6.84026 19.4555 6.65514 19.0532C6.47002 18.6509 6.19968 18.2921 5.8622 18.0008C6.20333 17.7137 6.47818 17.3584 6.66836 16.9585C6.85854 16.5585 6.95968 16.1233 6.965 15.6818ZM3.82082 14.1113C4.13272 14.1133 4.43704 14.2062 4.6953 14.3782C4.95355 14.5502 5.15415 14.7936 5.27172 15.0777C5.38929 15.3618 5.41855 15.6738 5.35581 15.9742C5.29306 16.2746 5.14112 16.5499 4.91921 16.7654C4.6973 16.9808 4.41537 17.1267 4.10909 17.1846C3.80281 17.2425 3.48593 17.2098 3.19851 17.0906C2.9111 16.9714 2.66606 16.7712 2.49439 16.5151C2.32272 16.259 2.23212 15.9586 2.23406 15.6519C2.23665 15.2407 2.40529 14.8474 2.70286 14.5585C3.00044 14.2695 3.40258 14.1087 3.82082 14.1113Z" fill="#8B97AE"/>
<path d="M20.0541 18.0905C20.5425 17.6795 20.8915 17.1315 21.0543 16.5199C21.2171 15.9084 21.1859 15.2625 20.9649 14.6688C20.7439 14.0751 20.3436 13.5619 19.8178 13.1981C19.2919 12.8342 18.6655 12.6371 18.0226 12.633C17.3797 12.629 16.7509 12.8182 16.2205 13.1754C15.69 13.5326 15.2834 14.0406 15.0549 14.6315C14.8264 15.2224 14.7871 15.8678 14.9421 16.4814C15.0972 17.0949 15.4392 17.6473 15.9224 18.0644C15.5813 18.3514 15.3064 18.7068 15.1162 19.1067C14.9261 19.5066 14.8249 19.9419 14.8196 20.3834C14.8183 20.589 14.9001 20.7867 15.0471 20.933C15.194 21.0794 15.3941 21.1623 15.6032 21.1636C15.8123 21.165 16.0134 21.0845 16.1622 20.9401C16.311 20.7956 16.3953 20.5989 16.3966 20.3933C16.3992 19.9821 16.5678 19.5888 16.8654 19.2998C17.163 19.0109 17.5651 18.8501 17.9834 18.8527C18.4016 18.8554 18.8017 19.0213 19.0956 19.3139C19.3895 19.6066 19.5531 20.002 19.5506 20.4132C19.5493 20.6189 19.6311 20.8166 19.778 20.9629C19.925 21.1092 20.125 21.1922 20.3341 21.1935C20.5433 21.1948 20.7443 21.1144 20.8931 20.9699C21.0419 20.8255 21.1262 20.6288 21.1275 20.4232C21.1278 19.9817 21.0322 19.5452 20.847 19.1429C20.6619 18.7406 20.3916 18.3818 20.0541 18.0905ZM16.426 15.7416C16.4279 15.435 16.5223 15.1358 16.6972 14.8819C16.872 14.628 17.1196 14.4308 17.4085 14.3153C17.6974 14.1997 18.0147 14.171 18.3202 14.2328C18.6257 14.2945 18.9058 14.444 19.1249 14.6622C19.3441 14.8805 19.4926 15.1577 19.5515 15.4589C19.6105 15.76 19.5773 16.0716 19.4561 16.3542C19.335 16.6367 19.1313 16.8776 18.8709 17.0464C18.6105 17.2151 18.305 17.3041 17.9931 17.3022C17.5749 17.2995 17.1748 17.1336 16.8809 16.841C16.587 16.5483 16.4234 16.1529 16.426 15.7416Z" fill="#8B97AE"/>
<path d="M12.4888 14.9414L11.7003 14.9364L11.7247 11.06C11.726 10.8544 11.6442 10.6567 11.4973 10.5103C11.3503 10.364 11.1503 10.2811 10.9412 10.2798C10.732 10.2784 10.531 10.3588 10.3822 10.5033C10.2334 10.6478 10.1491 10.8444 10.1478 11.0501L10.1233 14.9265L9.33481 14.9215C9.12569 14.9202 8.92462 15.0006 8.77584 15.145C8.62705 15.2895 8.54273 15.4862 8.54143 15.6918C8.54013 15.8974 8.62196 16.0951 8.76892 16.2414C8.91587 16.3878 9.11591 16.4707 9.32503 16.472L12.479 16.4919C12.6881 16.4933 12.8892 16.4129 13.038 16.2684C13.1868 16.1239 13.2711 15.9273 13.2724 15.7216C13.2737 15.516 13.1918 15.3183 13.0449 15.172C12.8979 15.0257 12.6979 14.9427 12.4888 14.9414Z" fill="#8B97AE"/>
</svg>
