<svg width="26" height="20" viewBox="0 0 26 20" fill="none" xmlns="http://www.w3.org/2000/svg">
<g filter="url(#filter0_d_2991_7836)">
<path fill-rule="evenodd" clip-rule="evenodd" d="M12.9413 4.22381L11.6565 2.96262C10.4807 1.80856 8.56275 1.79646 7.37255 2.93559C6.18237 4.07473 6.17062 5.93363 7.34629 7.08771L8.63111 8.3489L12.8886 12.5283L18.4845 7.17254L18.4996 7.15828C19.6898 6.01913 19.7016 4.16014 18.5258 3.00606C17.3501 1.85201 15.4322 1.83989 14.242 2.97897L12.9413 4.22381ZM12.8728 15.0344L6.0454 8.33276C4.16014 6.48209 4.17915 3.50102 6.08767 1.67438C7.99623 -0.152274 11.0718 -0.132863 12.9571 1.71774C14.8657 -0.108839 17.9412 -0.0894011 19.8265 1.76118C21.7118 3.61178 21.693 6.59284 19.7845 8.41947L19.7607 8.4421L12.8728 15.0344Z" fill="#8B97AE"/>
<path d="M6.43339 2.0356C8.14685 0.395677 10.9143 0.413144 12.6069 2.07456L12.9527 2.41404L13.3028 2.07896C15.0163 0.439115 17.7837 0.456602 19.4763 2.11801C21.1599 3.77067 21.1434 6.42609 19.4394 8.05762C19.4392 8.05783 19.439 8.05804 19.4388 8.05826L19.4163 8.07954L19.4149 8.08088L12.8772 14.3381L6.39567 7.97595C4.71184 6.32302 4.72876 3.6671 6.43339 2.0356ZM6.43339 2.0356L6.08767 1.67438L6.43339 2.0356ZM12.0067 2.60579L11.6565 2.96262L12.0067 2.60579C10.6382 1.26255 8.41214 1.2485 7.02683 2.57437L7.02682 2.57438C5.63275 3.90868 5.61894 6.09272 6.99602 7.44453L6.99603 7.44453L8.28084 8.70571L8.28085 8.70572L12.5384 12.8852L12.8842 13.2247L13.2343 12.8896L18.8281 7.53586L18.8303 7.53376L18.8431 7.5216L18.8431 7.5216L18.8453 7.5195C20.2395 6.18519 20.2533 4.00104 18.8761 2.64924L18.8761 2.64923C17.5076 1.30601 15.2816 1.29194 13.8963 2.61774L13.8963 2.61775L12.9457 3.5275L12.0067 2.60579Z" stroke="#8B97AE"/>
</g>
<defs>
<filter id="filter0_d_2991_7836" x="0.643799" y="0.316986" width="24.5845" height="22.7174" filterUnits="userSpaceOnUse" color-interpolation-filters="sRGB">
<feFlood flood-opacity="0" result="BackgroundImageFix"/>
<feColorMatrix in="SourceAlpha" type="matrix" values="0 0 0 0 0 0 0 0 0 0 0 0 0 0 0 0 0 0 127 0" result="hardAlpha"/>
<feOffset dy="4"/>
<feGaussianBlur stdDeviation="2"/>
<feComposite in2="hardAlpha" operator="out"/>
<feColorMatrix type="matrix" values="0 0 0 0 0 0 0 0 0 0 0 0 0 0 0 0 0 0 0.25 0"/>
<feBlend mode="normal" in2="BackgroundImageFix" result="effect1_dropShadow_2991_7836"/>
<feBlend mode="normal" in="SourceGraphic" in2="effect1_dropShadow_2991_7836" result="shape"/>
</filter>
</defs>
</svg>
